<svg version="1.1" id="Layer_1" xmlns="http://www.w3.org/2000/svg" xmlns:xlink="http://www.w3.org/1999/xlink" x="0px" y="0px"
	 width="100%" viewBox="0 0 1138 640" enable-background="new 0 0 1138 640" xml:space="preserve">
<path fill="#131A21" opacity="1.000000" stroke="none" 
	d="
M735.000000,641.000000 
	C491.500000,641.000000 248.500031,640.989929 5.500083,641.093384 
	C1.750995,641.094971 0.904579,640.249390 0.906454,636.500000 
	C1.011654,426.166748 1.011654,215.833405 0.906479,5.500128 
	C0.904604,1.751053 1.750638,0.905980 5.499942,0.906972 
	C381.833252,1.006526 758.166565,1.006522 1134.499878,0.907012 
	C1138.248535,0.906021 1139.095459,1.750291 1139.093506,5.499897 
	C1138.988281,215.833176 1138.988403,426.166504 1139.093506,636.499756 
	C1139.095337,640.248474 1138.250244,641.097351 1134.500122,641.094177 
	C1001.500183,640.981567 868.500061,641.000000 735.000000,641.000000 
z"/>
<path fill="#008CFE" opacity="1.000000" stroke="none" 
	d="
M330.571899,192.562241 
	C345.025146,180.587769 361.395264,174.415619 379.681244,172.970444 
	C383.440521,172.673340 385.594971,173.730011 387.421082,177.375626 
	C413.030029,228.501480 381.099609,290.401978 324.567963,298.948700 
	C318.196564,299.911957 311.683563,305.401703 311.823944,309.690521 
	C311.974640,314.296387 318.544342,320.156860 324.703369,321.179626 
	C381.329529,330.582947 412.345825,389.996124 387.849365,441.979675 
	C386.069519,445.756683 384.000488,447.320648 379.519836,447.124878 
	C340.143005,445.404297 305.201508,412.600281 300.858215,373.418762 
	C299.221558,358.654114 300.875610,344.466492 306.462769,330.838013 
	C308.652679,325.496307 307.302032,321.091797 304.978760,316.584167 
	C303.592529,313.894653 296.004333,313.638367 291.716309,315.869751 
	C289.713562,316.911896 288.423035,318.617706 287.055969,320.299927 
	C270.054688,341.220215 247.939880,352.393646 221.119385,352.370148 
	C190.687164,352.343506 166.706223,339.072601 149.516296,313.753296 
	C147.590668,310.916992 147.937943,308.812775 149.670715,306.091949 
	C176.372238,264.164948 236.190796,254.929245 274.382416,286.873871 
	C279.132965,290.847382 283.679718,295.052185 287.218201,300.108643 
	C290.961853,305.458252 296.456848,305.676453 301.914124,305.671234 
	C305.590881,305.667725 308.899933,296.758789 307.242767,291.705292 
	C305.741455,287.127106 303.816498,282.697174 302.773773,277.958374 
	C295.343872,244.192993 304.673065,215.862976 330.571899,192.562241 
z"/>
<path fill="#FDFDFD" opacity="1.000000" stroke="none" 
	d="
M717.839539,380.098846 
	C717.839539,397.906464 717.723999,415.231049 717.926331,432.551971 
	C717.972900,436.538147 717.149109,438.168976 712.781372,437.940460 
	C705.638428,437.566803 698.454163,437.644562 691.302307,437.920990 
	C687.683472,438.060852 686.910522,436.773926 686.925232,433.382935 
	C687.049561,404.733459 686.996216,376.083221 686.996216,347.433197 
	C686.996216,319.116333 687.081726,290.798889 686.895508,262.483246 
	C686.870178,258.643951 687.929688,257.756805 691.589355,257.907043 
	C698.906128,258.207520 706.252136,258.202911 713.569458,257.909058 
	C717.231140,257.762024 718.240906,259.058624 717.887878,262.447998 
	C717.637451,264.852295 717.839417,267.303680 717.839417,270.429749 
	C721.107910,267.811707 723.652039,265.520813 726.440735,263.581421 
	C743.904602,251.436279 770.295837,252.383316 789.635254,266.654602 
	C811.779480,282.995575 819.408691,305.907501 815.268188,332.284241 
	C811.130676,358.641907 796.168945,377.077148 769.801941,384.193176 
	C751.618408,389.100616 734.435547,386.614014 720.120605,372.951752 
	C719.761414,372.608978 719.369995,372.297241 718.972168,371.999695 
	C718.876343,371.927979 718.694824,371.970642 717.839539,371.910950 
	C717.839539,374.484375 717.839539,377.049438 717.839539,380.098846 
z"/>
<path fill="#FDFDFD" opacity="1.000000" stroke="none" 
	d="
M466.196075,275.847717 
	C461.864258,269.995361 457.746368,264.427887 453.000122,258.010864 
	C465.698975,258.010864 477.433472,258.031128 489.167786,257.990692 
	C491.105072,257.984009 491.557159,259.552490 492.405762,260.688202 
	C499.678070,270.420654 506.916534,280.178375 514.181091,289.916595 
	C515.162842,291.232605 515.866272,292.818481 517.608826,293.605682 
	C525.629089,282.801422 533.718018,272.019104 541.650757,261.123047 
	C543.264709,258.906158 544.889160,257.866089 547.767090,257.917145 
	C558.708313,258.111359 569.655090,257.995483 581.523560,257.995483 
	C574.677368,267.268585 568.314880,275.907990 561.929260,284.530243 
	C554.203430,294.962097 546.598572,305.488800 538.633118,315.734833 
	C536.313721,318.718384 536.728943,320.513977 538.813965,323.283844 
	C552.927124,342.032043 566.862671,360.913849 580.843994,379.761139 
	C581.611755,380.796112 582.275269,381.908386 583.553406,383.840393 
	C574.926453,383.840393 566.978333,383.157471 559.200134,384.014954 
	C549.688721,385.063507 543.600647,381.919006 538.504578,373.707123 
	C532.296082,363.702698 524.617249,354.610687 517.287842,344.737946 
	C509.506256,355.181488 501.437592,365.156921 494.381897,375.803650 
	C490.230286,382.068237 485.659302,384.647919 478.122772,384.009003 
	C469.526001,383.280212 460.819977,383.840393 452.111847,383.840393 
	C451.363556,381.486633 453.263855,380.419189 454.235168,379.100525 
	C468.154877,360.203064 482.086090,341.313019 496.197510,322.558868 
	C498.063843,320.078491 498.030029,318.613525 496.210541,316.206299 
	C486.173309,302.926788 476.323822,289.505402 466.196075,275.847717 
z"/>
<path fill="#FDFDFD" opacity="1.000000" stroke="none" 
	d="
M902.493408,258.493408 
	C910.288574,262.615417 916.661987,267.813538 921.703308,274.662628 
	C923.337036,276.882263 923.431396,278.165863 920.795837,279.629822 
	C914.260376,283.259979 907.789062,287.019409 901.441956,290.967957 
	C898.984863,292.496490 897.815002,291.764191 896.146912,289.803497 
	C890.519470,283.188873 883.787292,278.710999 874.518921,279.825317 
	C868.985168,280.490601 864.904053,283.532257 861.931152,287.950684 
	C857.678528,294.270966 860.810364,301.595673 868.623962,303.057800 
	C877.444885,304.708405 886.426697,305.487427 895.266296,307.053162 
	C913.424744,310.269409 926.044189,323.083588 928.405823,340.301300 
	C930.839294,358.042786 920.053345,374.913635 901.515686,382.361481 
	C877.246521,392.112122 845.755615,384.178772 830.832336,364.556580 
	C828.403748,361.363312 826.534546,357.867645 824.852234,354.225769 
	C823.778442,351.901276 823.879272,350.767975 826.608704,349.936462 
	C834.078369,347.660797 841.518494,345.259338 848.855408,342.591736 
	C851.588684,341.597961 852.457031,342.377136 853.685425,344.762970 
	C861.585022,360.106293 882.021973,363.838837 894.921204,352.362457 
	C898.467712,349.207214 901.544006,345.567230 900.337830,340.301849 
	C899.130310,335.030640 894.926636,332.806549 890.187134,331.947021 
	C882.010742,330.464264 873.742859,329.493622 865.527344,328.218201 
	C845.156616,325.055756 832.432007,311.444336 831.558594,291.957642 
	C830.785339,274.702911 845.128174,256.987732 863.414734,252.966217 
	C876.932129,249.993546 889.860291,252.146027 902.493408,258.493408 
z"/>
<path fill="#FCFCFC" opacity="1.000000" stroke="none" 
	d="
M667.169861,257.723236 
	C667.174683,265.996674 667.092529,273.830536 667.223450,281.660828 
	C667.264648,284.129150 666.739197,284.962616 663.990051,285.093964 
	C638.270691,286.322754 628.522339,296.625031 628.516174,322.270966 
	C628.511658,341.102203 628.381958,359.935120 628.616760,378.763458 
	C628.669983,383.030273 627.336914,384.111572 623.275879,383.930969 
	C616.124146,383.612885 608.944580,383.711639 601.783936,383.904877 
	C598.848694,383.984131 597.741943,383.357422 597.751282,380.111267 
	C597.864746,340.615967 597.870361,301.120056 597.742737,261.624847 
	C597.732056,258.302032 598.917542,257.864349 601.765198,257.933136 
	C609.260010,258.114044 616.770447,258.204193 624.257629,257.904846 
	C627.948120,257.757294 628.944824,259.107727 628.551636,262.456573 
	C628.345337,264.213745 628.515198,266.015106 628.515198,268.477081 
	C633.246643,265.686493 637.045044,262.787262 641.384705,260.780243 
	C648.438477,257.517914 655.802429,255.737076 663.536438,255.540985 
	C664.852356,255.507629 667.151245,254.267532 667.169861,257.723236 
z"/>
<path fill="#141B22" opacity="1.000000" stroke="none" 
	d="
M763.998901,356.217590 
	C742.129456,364.862976 720.137146,352.713379 715.922424,330.014404 
	C711.890137,308.297882 721.323975,290.092682 739.452759,284.606262 
	C759.342834,278.586884 776.811523,288.393951 782.085083,308.545288 
	C784.504700,317.791412 784.249878,326.966492 781.204529,336.026947 
	C778.221619,344.901855 772.888672,351.838806 763.998901,356.217590 
z"/>
</svg>